<?xml version="1.0" encoding="UTF-8"?>
<!DOCTYPE svg PUBLIC "-//W3C//DTD SVG 1.1//EN" "http://www.w3.org/Graphics/SVG/1.1/DTD/svg11.dtd">
<!-- Creator: CorelDRAW 2017 -->
<svg xmlns="http://www.w3.org/2000/svg" xml:space="preserve" width="25.1646mm" height="26.9193mm" version="1.1" style="shape-rendering:geometricPrecision; text-rendering:geometricPrecision; image-rendering:optimizeQuality; fill-rule:evenodd; clip-rule:evenodd"
viewBox="0 0 1543.54 1651.16"
 xmlns:xlink="http://www.w3.org/1999/xlink">
 <defs>
  <style type="text/css">
   <![CDATA[
    .fil0 {fill:#FEFEFE}
   ]]>
  </style>
 </defs>
 <g id="图层_x0020_1">
  <metadata id="CorelCorpID_0Corel-Layer"/>
  <g id="_1643540528160">
   <path class="fil0" d="M1401.13 551.03l-127.01 0c57.41,-64.32 67.57,-152.36 67.57,-243.81 0,-30.3 -15.53,-79.65 -35.39,-121.22 -5.11,-11.72 -15.32,-17.41 -20.08,1.39 -42.04,160.65 -122.33,254.06 -270.5,265.93l-243.66 0 -0.59 0 -243.66 0c-148.17,-11.87 -228.46,-105.27 -270.5,-265.92 -4.77,-18.8 -14.97,-13.11 -20.08,-1.39 -19.85,41.56 -35.39,90.91 -35.39,121.22 0,91.45 10.16,179.49 67.58,243.81l-127.01 0c-46.97,0 -59.22,28.76 -27.2,63.91l41.1 45.11c32.02,35.15 96.64,63.91 143.61,63.91l21.1 0c0.65,4.96 1.85,9.65 3.66,13.68l221.51 491.55c6.55,14.54 4.21,36.9 -5.21,49.7l-48.72 66.18c-9.42,12.79 -8.46,32.91 2.11,44.71l101.11 112.79c10.58,11.8 32.05,21.45 47.71,21.45l128.3 0 0.59 0 128.3 0c15.65,0 37.12,-9.65 47.7,-21.45l101.11 -112.79c10.58,-11.8 11.53,-31.92 2.12,-44.71l-48.72 -66.18c-9.42,-12.8 -11.76,-35.16 -5.21,-49.7l221.5 -491.55c1.81,-4.02 3.01,-8.72 3.66,-13.68l21.09 0c46.98,0 111.6,-28.76 143.62,-63.91l41.1 -45.11c32.02,-35.15 19.78,-63.91 -27.19,-63.91zm-1010.32 -38.07c-3.74,18.4 -17.39,29.81 -39.99,27.82 -62.64,-4.24 -111.88,-150.57 -113.28,-190.67 -0.38,-20.17 -0.03,-42.6 4.82,-61.6 2.5,-9.86 11.82,-8.03 12.99,-1.12 18.66,110.65 96.31,172.95 112.26,179.96 15.95,7.02 26.94,27.22 23.2,45.61zm582.19 879.88l-65.22 72.76c-10.58,11.8 -32.05,21.46 -47.71,21.46l-88.02 0 -0.59 0 -88.01 0c-15.66,0 -37.13,-9.65 -47.71,-21.46l-65.22 -72.76c-10.58,-11.81 -11.53,-31.92 -2.12,-44.71l37.91 -51.49c9.42,-12.79 29.93,-23.25 45.59,-23.25l119.56 0 0.59 0 119.57 0c15.66,0 36.17,10.46 45.59,23.25l37.91 51.49c9.42,12.79 8.46,32.9 -2.12,44.71zm219.7 -852.06c-22.6,1.99 -36.25,-9.42 -39.99,-27.82 -3.74,-18.39 7.26,-38.59 23.2,-45.6 15.95,-7.02 93.6,-69.32 112.26,-179.97 1.17,-6.91 10.49,-8.73 12.99,1.12 4.85,19 5.2,41.42 4.81,61.6 -1.4,40.1 -50.64,186.44 -113.28,190.67zm-491.93 349.7c-16.98,30.6 -147.54,5.8 -198.15,-21.3 -50.62,-27.1 -32.89,-71.92 -14.14,-103.29 18.76,-31.37 41.75,-52.01 94.43,-30.66 52.69,21.35 134.85,124.66 117.86,155.25zm267.24 -155.26c52.68,-21.35 75.67,-0.71 94.42,30.67 18.76,31.37 36.49,76.19 -14.13,103.29 -50.62,27.1 -181.17,51.89 -198.15,21.3 -16.98,-30.59 65.17,-133.9 117.86,-155.26z" p-id="5705"/>
   <path class="fil0" d="M719.97 1378.1c-20.7,-4.1 -41.67,-16.4 -34.46,-40 1.16,-3.66 3.07,-6.78 3.07,-6.78 4.15,-6.23 -6.18,-3.6 -13.29,2.56 0,0 -6.69,5.8 -10.74,19.06 -7.21,23.61 14.2,48.6 34.89,52.7 14.76,2.93 33.47,2.48 37.74,1.3 13.37,-4.55 12.02,-28.05 0.92,-28.05 -3.68,0.2 -15.86,-0.33 -18.14,-0.79z" p-id="5706"/>
   <path class="fil0" d="M852.6 1378.1c20.7,-4.1 41.67,-16.4 34.47,-40 -1.17,-3.66 -3.07,-6.78 -3.07,-6.78 -4.15,-6.23 6.18,-3.6 13.28,2.56 0,0 6.7,5.8 10.75,19.06 7.21,23.61 -14.2,48.6 -34.9,52.7 -14.76,2.93 -33.47,2.48 -37.73,1.3 -13.37,-4.55 -12.02,-28.05 -0.93,-28.05 3.69,0.2 15.86,-0.33 18.14,-0.79z" p-id="5707"/>
  </g>
  <path class="fil0" d="M1443.56 387.86l99.98 57.72 0 445.57 0 445.57 -385.89 222.8 -158.72 91.64 -91.7 0 227.5 -131.35 362.96 -209.56 0 -419.1 0 -419.1 -67.7 -39.09 13.57 -45.11zm-898.95 1263.31l-158.72 -91.64 -385.89 -222.8 0 -445.57 0 -445.57 101.84 -58.79 13.57 45.1 -69.56 40.16 0 419.1 0 419.1 362.96 209.56 227.5 131.35 -91.7 0z"/>
  <polygon class="fil0" points="771.77,0 1131.65,207.77 1118.08,252.88 771.77,52.94 427.31,251.81 413.74,206.71 "/>
 </g>
</svg>
